<mxfile host="app.diagrams.net" modified="2023-07-07T07:28:21.687Z" agent="Mozilla/5.0 (Windows NT 10.0; Win64; x64) AppleWebKit/537.36 (KHTML, like Gecko) Chrome/114.0.0.0 Safari/537.36 Edg/114.0.1823.67" etag="J3mMZXti7LM1DJssM99p" version="21.6.1" type="github">
  <diagram id="9oJ7FGJUVw7rw9XwDR2D" name="Page-1">
    <mxGraphModel dx="996" dy="587" grid="1" gridSize="10" guides="1" tooltips="1" connect="1" arrows="1" fold="1" page="1" pageScale="1" pageWidth="1600" pageHeight="1200" math="0" shadow="0">
      <root>
        <mxCell id="0" />
        <mxCell id="1" parent="0" />
        <mxCell id="oKqf-iYtb7l72GJUaHH_-1" value="&lt;font style=&quot;font-size: 24px&quot;&gt;线程1&lt;/font&gt;" style="rounded=1;whiteSpace=wrap;html=1;" parent="1" vertex="1">
          <mxGeometry x="10" y="120" width="120" height="40" as="geometry" />
        </mxCell>
        <mxCell id="oKqf-iYtb7l72GJUaHH_-104" value="" style="shape=link;html=1;rounded=0;fontSize=24;width=141;" parent="1" edge="1">
          <mxGeometry width="100" relative="1" as="geometry">
            <mxPoint x="130" y="210" as="sourcePoint" />
            <mxPoint x="230" y="210" as="targetPoint" />
          </mxGeometry>
        </mxCell>
        <mxCell id="oKqf-iYtb7l72GJUaHH_-105" value="&lt;font style=&quot;font-size: 24px&quot;&gt;线程2&lt;/font&gt;" style="rounded=1;whiteSpace=wrap;html=1;" parent="1" vertex="1">
          <mxGeometry x="10" y="260" width="120" height="40" as="geometry" />
        </mxCell>
        <mxCell id="oKqf-iYtb7l72GJUaHH_-106" value="" style="rounded=1;whiteSpace=wrap;html=1;fontSize=24;fillColor=#f8cecc;strokeColor=#b85450;" parent="1" vertex="1">
          <mxGeometry x="230" y="120" width="220" height="40" as="geometry" />
        </mxCell>
        <mxCell id="oKqf-iYtb7l72GJUaHH_-107" value="" style="shape=flexArrow;endArrow=classic;html=1;rounded=0;fontSize=24;" parent="1" edge="1">
          <mxGeometry width="50" height="50" relative="1" as="geometry">
            <mxPoint x="230" y="40" as="sourcePoint" />
            <mxPoint x="230" y="120" as="targetPoint" />
          </mxGeometry>
        </mxCell>
        <mxCell id="oKqf-iYtb7l72GJUaHH_-108" value="线程1进入临界区·" style="rounded=1;whiteSpace=wrap;html=1;fontSize=24;fillColor=#d5e8d4;strokeColor=#82b366;" parent="1" vertex="1">
          <mxGeometry x="140" y="10" width="170" height="70" as="geometry" />
        </mxCell>
        <mxCell id="oKqf-iYtb7l72GJUaHH_-111" value="" style="shape=flexArrow;endArrow=classic;html=1;rounded=0;fontSize=24;" parent="1" edge="1">
          <mxGeometry width="50" height="50" relative="1" as="geometry">
            <mxPoint x="450" y="40" as="sourcePoint" />
            <mxPoint x="450" y="120" as="targetPoint" />
          </mxGeometry>
        </mxCell>
        <mxCell id="oKqf-iYtb7l72GJUaHH_-110" value="线程1离开临界区·" style="rounded=1;whiteSpace=wrap;html=1;fontSize=24;fillColor=#d5e8d4;strokeColor=#82b366;" parent="1" vertex="1">
          <mxGeometry x="370" y="10" width="170" height="70" as="geometry" />
        </mxCell>
        <mxCell id="oKqf-iYtb7l72GJUaHH_-113" value="" style="endArrow=none;html=1;rounded=0;fontSize=24;" parent="1" edge="1">
          <mxGeometry width="50" height="50" relative="1" as="geometry">
            <mxPoint x="450" y="139.5" as="sourcePoint" />
            <mxPoint x="760" y="140" as="targetPoint" />
          </mxGeometry>
        </mxCell>
        <mxCell id="oKqf-iYtb7l72GJUaHH_-114" value="线程2试图进入临界区" style="rounded=1;whiteSpace=wrap;html=1;fontSize=24;fillColor=#dae8fc;strokeColor=#6c8ebf;" parent="1" vertex="1">
          <mxGeometry x="72.5" y="380" width="305" height="60" as="geometry" />
        </mxCell>
        <mxCell id="oKqf-iYtb7l72GJUaHH_-115" value="" style="endArrow=classic;html=1;rounded=0;fontSize=24;" parent="1" edge="1">
          <mxGeometry width="50" height="50" relative="1" as="geometry">
            <mxPoint x="180" y="380" as="sourcePoint" />
            <mxPoint x="260" y="290" as="targetPoint" />
          </mxGeometry>
        </mxCell>
        <mxCell id="oKqf-iYtb7l72GJUaHH_-116" value="" style="endArrow=none;dashed=1;html=1;rounded=0;fontSize=24;jumpSize=15;strokeWidth=4;" parent="1" edge="1">
          <mxGeometry width="50" height="50" relative="1" as="geometry">
            <mxPoint x="240" y="279.5" as="sourcePoint" />
            <mxPoint x="450" y="280" as="targetPoint" />
          </mxGeometry>
        </mxCell>
        <mxCell id="oKqf-iYtb7l72GJUaHH_-117" value="线程2阻塞" style="rounded=1;whiteSpace=wrap;html=1;fontSize=24;fillColor=#dae8fc;strokeColor=#6c8ebf;" parent="1" vertex="1">
          <mxGeometry x="270" y="290" width="120" height="60" as="geometry" />
        </mxCell>
        <mxCell id="oKqf-iYtb7l72GJUaHH_-118" value="" style="rounded=1;whiteSpace=wrap;html=1;fontSize=24;fillColor=#f8cecc;strokeColor=#b85450;" parent="1" vertex="1">
          <mxGeometry x="450" y="260" width="220" height="40" as="geometry" />
        </mxCell>
        <mxCell id="oKqf-iYtb7l72GJUaHH_-120" value="" style="shape=flexArrow;endArrow=classic;html=1;rounded=0;fontSize=24;strokeWidth=1;jumpSize=15;" parent="1" edge="1">
          <mxGeometry width="50" height="50" relative="1" as="geometry">
            <mxPoint x="454.5" y="390" as="sourcePoint" />
            <mxPoint x="454.5" y="310" as="targetPoint" />
          </mxGeometry>
        </mxCell>
        <mxCell id="oKqf-iYtb7l72GJUaHH_-121" value="线程2进入临界区·" style="rounded=1;whiteSpace=wrap;html=1;fontSize=24;fillColor=#d5e8d4;strokeColor=#82b366;" parent="1" vertex="1">
          <mxGeometry x="400" y="380" width="170" height="70" as="geometry" />
        </mxCell>
        <mxCell id="oKqf-iYtb7l72GJUaHH_-122" value="" style="shape=flexArrow;endArrow=classic;html=1;rounded=0;fontSize=24;strokeWidth=1;jumpSize=15;" parent="1" edge="1">
          <mxGeometry width="50" height="50" relative="1" as="geometry">
            <mxPoint x="670" y="390" as="sourcePoint" />
            <mxPoint x="670" y="310" as="targetPoint" />
          </mxGeometry>
        </mxCell>
        <mxCell id="oKqf-iYtb7l72GJUaHH_-123" value="线程2离开临界区·" style="rounded=1;whiteSpace=wrap;html=1;fontSize=24;fillColor=#d5e8d4;strokeColor=#82b366;" parent="1" vertex="1">
          <mxGeometry x="600" y="390" width="170" height="70" as="geometry" />
        </mxCell>
        <mxCell id="oKqf-iYtb7l72GJUaHH_-124" value="" style="endArrow=none;html=1;rounded=0;fontSize=24;strokeWidth=1;jumpSize=15;" parent="1" edge="1">
          <mxGeometry width="50" height="50" relative="1" as="geometry">
            <mxPoint x="670" y="279.5" as="sourcePoint" />
            <mxPoint x="760" y="279.5" as="targetPoint" />
            <Array as="points">
              <mxPoint x="730" y="279.5" />
            </Array>
          </mxGeometry>
        </mxCell>
        <mxCell id="oKqf-iYtb7l72GJUaHH_-125" value="线程1" style="rounded=1;whiteSpace=wrap;html=1;fontSize=24;" parent="1" vertex="1">
          <mxGeometry x="110" y="540" width="120" height="50" as="geometry" />
        </mxCell>
        <mxCell id="oKqf-iYtb7l72GJUaHH_-126" value="" style="endArrow=classic;html=1;rounded=0;fontSize=24;strokeWidth=1;jumpSize=15;" parent="1" edge="1">
          <mxGeometry width="50" height="50" relative="1" as="geometry">
            <mxPoint x="169.5" y="590" as="sourcePoint" />
            <mxPoint x="169.5" y="660" as="targetPoint" />
          </mxGeometry>
        </mxCell>
        <mxCell id="oKqf-iYtb7l72GJUaHH_-129" value="" style="endArrow=classic;html=1;rounded=0;fontSize=24;strokeWidth=1;jumpSize=15;" parent="1" edge="1">
          <mxGeometry width="50" height="50" relative="1" as="geometry">
            <mxPoint x="169.5" y="700" as="sourcePoint" />
            <mxPoint x="169.5" y="770" as="targetPoint" />
          </mxGeometry>
        </mxCell>
        <mxCell id="oKqf-iYtb7l72GJUaHH_-127" value="加锁" style="rounded=1;whiteSpace=wrap;html=1;fontSize=24;" parent="1" vertex="1">
          <mxGeometry x="110" y="660" width="120" height="50" as="geometry" />
        </mxCell>
        <mxCell id="oKqf-iYtb7l72GJUaHH_-130" value="临界区资源" style="rounded=1;whiteSpace=wrap;html=1;fontSize=24;" parent="1" vertex="1">
          <mxGeometry x="110" y="770" width="120" height="50" as="geometry" />
        </mxCell>
        <mxCell id="oKqf-iYtb7l72GJUaHH_-135" value="" style="endArrow=classic;html=1;rounded=0;fontSize=24;strokeWidth=1;jumpSize=15;" parent="1" edge="1">
          <mxGeometry width="50" height="50" relative="1" as="geometry">
            <mxPoint x="169.5" y="800" as="sourcePoint" />
            <mxPoint x="169.5" y="880" as="targetPoint" />
          </mxGeometry>
        </mxCell>
        <mxCell id="oKqf-iYtb7l72GJUaHH_-138" value="解锁" style="rounded=1;whiteSpace=wrap;html=1;fontSize=24;" parent="1" vertex="1">
          <mxGeometry x="110" y="880" width="120" height="30" as="geometry" />
        </mxCell>
        <mxCell id="oKqf-iYtb7l72GJUaHH_-139" value="" style="endArrow=classic;html=1;rounded=0;fontSize=24;strokeWidth=1;jumpSize=15;" parent="1" edge="1">
          <mxGeometry width="50" height="50" relative="1" as="geometry">
            <mxPoint x="169.5" y="910" as="sourcePoint" />
            <mxPoint x="169.5" y="960" as="targetPoint" />
          </mxGeometry>
        </mxCell>
        <mxCell id="oKqf-iYtb7l72GJUaHH_-140" value="线程2" style="rounded=1;whiteSpace=wrap;html=1;fontSize=24;" parent="1" vertex="1">
          <mxGeometry x="310" y="540" width="120" height="50" as="geometry" />
        </mxCell>
        <mxCell id="oKqf-iYtb7l72GJUaHH_-141" value="" style="endArrow=classic;html=1;rounded=0;fontSize=24;strokeWidth=1;jumpSize=15;" parent="1" edge="1">
          <mxGeometry width="50" height="50" relative="1" as="geometry">
            <mxPoint x="377.5" y="590" as="sourcePoint" />
            <mxPoint x="377.5" y="660" as="targetPoint" />
          </mxGeometry>
        </mxCell>
        <mxCell id="oKqf-iYtb7l72GJUaHH_-143" value="" style="endArrow=classic;html=1;rounded=0;fontSize=24;strokeWidth=1;jumpSize=15;" parent="1" edge="1">
          <mxGeometry width="50" height="50" relative="1" as="geometry">
            <mxPoint x="377.5" y="700" as="sourcePoint" />
            <mxPoint x="377.5" y="770" as="targetPoint" />
          </mxGeometry>
        </mxCell>
        <mxCell id="oKqf-iYtb7l72GJUaHH_-142" value="加锁" style="rounded=1;whiteSpace=wrap;html=1;fontSize=24;" parent="1" vertex="1">
          <mxGeometry x="310" y="660" width="120" height="50" as="geometry" />
        </mxCell>
        <mxCell id="oKqf-iYtb7l72GJUaHH_-145" value="" style="endArrow=classic;html=1;rounded=0;fontSize=24;strokeWidth=1;jumpSize=15;" parent="1" edge="1">
          <mxGeometry width="50" height="50" relative="1" as="geometry">
            <mxPoint x="379.5" y="800" as="sourcePoint" />
            <mxPoint x="379.5" y="880" as="targetPoint" />
          </mxGeometry>
        </mxCell>
        <mxCell id="oKqf-iYtb7l72GJUaHH_-144" value="临界区资源" style="rounded=1;whiteSpace=wrap;html=1;fontSize=24;" parent="1" vertex="1">
          <mxGeometry x="320" y="770" width="120" height="50" as="geometry" />
        </mxCell>
        <mxCell id="oKqf-iYtb7l72GJUaHH_-146" value="解锁" style="rounded=1;whiteSpace=wrap;html=1;fontSize=24;" parent="1" vertex="1">
          <mxGeometry x="320" y="880" width="120" height="30" as="geometry" />
        </mxCell>
        <mxCell id="oKqf-iYtb7l72GJUaHH_-147" value="" style="endArrow=classic;html=1;rounded=0;fontSize=24;strokeWidth=1;jumpSize=15;" parent="1" edge="1">
          <mxGeometry width="50" height="50" relative="1" as="geometry">
            <mxPoint x="379.5" y="900" as="sourcePoint" />
            <mxPoint x="379.5" y="950" as="targetPoint" />
          </mxGeometry>
        </mxCell>
      </root>
    </mxGraphModel>
  </diagram>
</mxfile>
